<svg xmlns="http://www.w3.org/2000/svg" width="113.39" height="113.39" viewBox="0 0 113.39 113.39" preserveAspectRatio="xMinYMin meet">
  <path fill="none" d="M-1-1h115.39v115.39H-1z"/>
  <g>
    <path fill="#191919" d="M113.387 96.371c0 9.393-7.615 17.008-17.008 17.008H17.008c-9.393 0-17.007-7.615-17.007-17.008V17C.001 7.607 7.615-.008 17.008-.008h79.371c9.393 0 17.008 7.615 17.008 17.008v79.371z"/>
    <path fill="#F16522" d="M38.502 29.5L21.75.005h-4.993C11.448.083 6.736 2.59 3.671 6.468L16.752 29.5h21.75z"/>
    <path fill="#F16522" d="M47.707 84l16.688 29.379h21.75L69.457 84z"/>
    <path fill="#FFDD15" d="M49.992.005h-21.75L44.994 29.5h21.75z"/>
    <path fill="#FFDD15" d="M75.949 84l16.688 29.379h3.742c5.749 0 10.823-2.861 13.901-7.229L97.699 84h-21.75z"/>
    <path fill="#FFDD15" d="M44.682 76.701c-.658 0-1.193-.541-1.193-1.203v-8.345H22.977v8.345c0 .662-.537 1.203-1.201 1.203h-8.59c-.66 0-1.197-.541-1.197-1.203V49.051c0-3.429 1.184-6.35 3.521-8.687 2.43-2.443 5.307-3.676 8.564-3.676h29.199c.662 0 1.199.533 1.199 1.193v37.616c0 .662-.537 1.203-1.199 1.203h-8.591v.001zm-1.194-20.539v-8.506H24.074c-.373 0-.633.066-.799.225-.266.271-.299.478-.299.609v7.672h20.512z"/>
    <path fill="#FFDD15" d="M60.027 76.579c-.66 0-1.197-.538-1.197-1.197V55.51c0-.659.537-1.197 1.197-1.197h8.551c.66 0 1.197.538 1.197 1.197v9.633h10.959c5.895 0 9.145-3.007 9.145-8.456 0-4.662-4.1-8.453-9.145-8.453H60.027c-.66 0-1.197-.537-1.197-1.196v-9.04c0-.659.537-1.193 1.197-1.193H81.5c7.236 0 12.686 2.647 16.209 7.879 1.188 1.761 2.16 3.913 2.984 6.564.939 3.06.945 7.737 0 10.872-.773 2.595-1.754 4.751-2.984 6.581-3.523 5.225-8.98 7.879-16.209 7.879H60.027v-.001z"/>
  </g>
</svg>